%TF.GenerationSoftware,KiCad,Pcbnew,8.0.3*%
%TF.CreationDate,2024-08-14T19:55:25+03:00*%
%TF.ProjectId,limit_switch,6c696d69-745f-4737-9769-7463682e6b69,rev?*%
%TF.SameCoordinates,PX6ce2448PY49658d0*%
%TF.FileFunction,Legend,Top*%
%TF.FilePolarity,Positive*%
%FSLAX46Y46*%
G04 Gerber Fmt 4.6, Leading zero omitted, Abs format (unit mm)*
G04 Created by KiCad (PCBNEW 8.0.3) date 2024-08-14 19:55:25*
%MOMM*%
%LPD*%
G01*
G04 APERTURE LIST*
%ADD10C,0.150000*%
%ADD11C,0.120000*%
G04 APERTURE END LIST*
D10*
X27762905Y-20388819D02*
X27762905Y-19388819D01*
X27762905Y-19388819D02*
X28001000Y-19388819D01*
X28001000Y-19388819D02*
X28143857Y-19436438D01*
X28143857Y-19436438D02*
X28239095Y-19531676D01*
X28239095Y-19531676D02*
X28286714Y-19626914D01*
X28286714Y-19626914D02*
X28334333Y-19817390D01*
X28334333Y-19817390D02*
X28334333Y-19960247D01*
X28334333Y-19960247D02*
X28286714Y-20150723D01*
X28286714Y-20150723D02*
X28239095Y-20245961D01*
X28239095Y-20245961D02*
X28143857Y-20341200D01*
X28143857Y-20341200D02*
X28001000Y-20388819D01*
X28001000Y-20388819D02*
X27762905Y-20388819D01*
X28667667Y-19388819D02*
X29286714Y-19388819D01*
X29286714Y-19388819D02*
X28953381Y-19769771D01*
X28953381Y-19769771D02*
X29096238Y-19769771D01*
X29096238Y-19769771D02*
X29191476Y-19817390D01*
X29191476Y-19817390D02*
X29239095Y-19865009D01*
X29239095Y-19865009D02*
X29286714Y-19960247D01*
X29286714Y-19960247D02*
X29286714Y-20198342D01*
X29286714Y-20198342D02*
X29239095Y-20293580D01*
X29239095Y-20293580D02*
X29191476Y-20341200D01*
X29191476Y-20341200D02*
X29096238Y-20388819D01*
X29096238Y-20388819D02*
X28810524Y-20388819D01*
X28810524Y-20388819D02*
X28715286Y-20341200D01*
X28715286Y-20341200D02*
X28667667Y-20293580D01*
X8878819Y-4966666D02*
X8402628Y-5299999D01*
X8878819Y-5538094D02*
X7878819Y-5538094D01*
X7878819Y-5538094D02*
X7878819Y-5157142D01*
X7878819Y-5157142D02*
X7926438Y-5061904D01*
X7926438Y-5061904D02*
X7974057Y-5014285D01*
X7974057Y-5014285D02*
X8069295Y-4966666D01*
X8069295Y-4966666D02*
X8212152Y-4966666D01*
X8212152Y-4966666D02*
X8307390Y-5014285D01*
X8307390Y-5014285D02*
X8355009Y-5061904D01*
X8355009Y-5061904D02*
X8402628Y-5157142D01*
X8402628Y-5157142D02*
X8402628Y-5538094D01*
X7974057Y-4585713D02*
X7926438Y-4538094D01*
X7926438Y-4538094D02*
X7878819Y-4442856D01*
X7878819Y-4442856D02*
X7878819Y-4204761D01*
X7878819Y-4204761D02*
X7926438Y-4109523D01*
X7926438Y-4109523D02*
X7974057Y-4061904D01*
X7974057Y-4061904D02*
X8069295Y-4014285D01*
X8069295Y-4014285D02*
X8164533Y-4014285D01*
X8164533Y-4014285D02*
X8307390Y-4061904D01*
X8307390Y-4061904D02*
X8878819Y-4633332D01*
X8878819Y-4633332D02*
X8878819Y-4014285D01*
X2079666Y-5506819D02*
X2079666Y-6221104D01*
X2079666Y-6221104D02*
X2032047Y-6363961D01*
X2032047Y-6363961D02*
X1936809Y-6459200D01*
X1936809Y-6459200D02*
X1793952Y-6506819D01*
X1793952Y-6506819D02*
X1698714Y-6506819D01*
X2508238Y-5602057D02*
X2555857Y-5554438D01*
X2555857Y-5554438D02*
X2651095Y-5506819D01*
X2651095Y-5506819D02*
X2889190Y-5506819D01*
X2889190Y-5506819D02*
X2984428Y-5554438D01*
X2984428Y-5554438D02*
X3032047Y-5602057D01*
X3032047Y-5602057D02*
X3079666Y-5697295D01*
X3079666Y-5697295D02*
X3079666Y-5792533D01*
X3079666Y-5792533D02*
X3032047Y-5935390D01*
X3032047Y-5935390D02*
X2460619Y-6506819D01*
X2460619Y-6506819D02*
X3079666Y-6506819D01*
X13517095Y-20026819D02*
X14088523Y-20026819D01*
X13802809Y-21026819D02*
X13802809Y-20026819D01*
X14945666Y-21026819D02*
X14374238Y-21026819D01*
X14659952Y-21026819D02*
X14659952Y-20026819D01*
X14659952Y-20026819D02*
X14564714Y-20169676D01*
X14564714Y-20169676D02*
X14469476Y-20264914D01*
X14469476Y-20264914D02*
X14374238Y-20312533D01*
X5835819Y-11598666D02*
X5359628Y-11931999D01*
X5835819Y-12170094D02*
X4835819Y-12170094D01*
X4835819Y-12170094D02*
X4835819Y-11789142D01*
X4835819Y-11789142D02*
X4883438Y-11693904D01*
X4883438Y-11693904D02*
X4931057Y-11646285D01*
X4931057Y-11646285D02*
X5026295Y-11598666D01*
X5026295Y-11598666D02*
X5169152Y-11598666D01*
X5169152Y-11598666D02*
X5264390Y-11646285D01*
X5264390Y-11646285D02*
X5312009Y-11693904D01*
X5312009Y-11693904D02*
X5359628Y-11789142D01*
X5359628Y-11789142D02*
X5359628Y-12170094D01*
X5835819Y-10646285D02*
X5835819Y-11217713D01*
X5835819Y-10931999D02*
X4835819Y-10931999D01*
X4835819Y-10931999D02*
X4978676Y-11027237D01*
X4978676Y-11027237D02*
X5073914Y-11122475D01*
X5073914Y-11122475D02*
X5121533Y-11217713D01*
X37893666Y-1382819D02*
X37893666Y-2097104D01*
X37893666Y-2097104D02*
X37846047Y-2239961D01*
X37846047Y-2239961D02*
X37750809Y-2335200D01*
X37750809Y-2335200D02*
X37607952Y-2382819D01*
X37607952Y-2382819D02*
X37512714Y-2382819D01*
X38893666Y-2382819D02*
X38322238Y-2382819D01*
X38607952Y-2382819D02*
X38607952Y-1382819D01*
X38607952Y-1382819D02*
X38512714Y-1525676D01*
X38512714Y-1525676D02*
X38417476Y-1620914D01*
X38417476Y-1620914D02*
X38322238Y-1668533D01*
D11*
%TO.C,U1*%
X26232000Y-12313000D02*
X26232000Y-10363000D01*
X26232000Y-12313000D02*
X26232000Y-14263000D01*
X31352000Y-12313000D02*
X31352000Y-10363000D01*
X31352000Y-12313000D02*
X31352000Y-14263000D01*
X26327000Y-15013000D02*
X25997000Y-15253000D01*
X25997000Y-14773000D01*
X26327000Y-15013000D01*
G36*
X26327000Y-15013000D02*
G01*
X25997000Y-15253000D01*
X25997000Y-14773000D01*
X26327000Y-15013000D01*
G37*
%TO.C,D3*%
X27401000Y-19044000D02*
X31311000Y-19044000D01*
X31311000Y-17024000D02*
X27401000Y-17024000D01*
X31311000Y-19044000D02*
X31311000Y-17024000D01*
%TO.C,C2*%
X23517000Y-14289248D02*
X23517000Y-15711752D01*
X25337000Y-14289248D02*
X25337000Y-15711752D01*
%TO.C,R7*%
X30471064Y-5948000D02*
X29016936Y-5948000D01*
X30471064Y-7768000D02*
X29016936Y-7768000D01*
%TO.C,R6*%
X34904064Y-8628000D02*
X33449936Y-8628000D01*
X34904064Y-10448000D02*
X33449936Y-10448000D01*
%TO.C,C1*%
X34837000Y-17011752D02*
X34837000Y-15589248D01*
X33017000Y-17011752D02*
X33017000Y-15589248D01*
%TO.C,R3*%
X24756064Y-3535000D02*
X23301936Y-3535000D01*
X24756064Y-5355000D02*
X23301936Y-5355000D01*
%TO.C,R4*%
X30104064Y-3328000D02*
X28649936Y-3328000D01*
X30104064Y-5148000D02*
X28649936Y-5148000D01*
%TO.C,R2*%
X5694000Y-4072936D02*
X5694000Y-5527064D01*
X7514000Y-4072936D02*
X7514000Y-5527064D01*
%TO.C,J2*%
X1083000Y-7052000D02*
X2413000Y-7052000D01*
X1083000Y-8382000D02*
X1083000Y-7052000D01*
X1083000Y-9652000D02*
X1083000Y-14792000D01*
X1083000Y-9652000D02*
X3743000Y-9652000D01*
X1083000Y-14792000D02*
X3743000Y-14792000D01*
X3743000Y-9652000D02*
X3743000Y-14792000D01*
%TO.C,T1*%
X24719000Y-18832000D02*
X24719000Y-20112000D01*
X24719000Y-20112000D02*
X23439000Y-20112000D01*
X24419000Y-19812000D02*
X5139000Y-19812000D01*
X5139000Y-2032000D01*
X24419000Y-2032000D01*
X24419000Y-19812000D01*
%TO.C,R1*%
X6291000Y-13609064D02*
X6291000Y-9254936D01*
X9711000Y-13609064D02*
X9711000Y-9254936D01*
%TO.C,D2*%
X22739000Y-6260000D02*
X22739000Y-10170000D01*
X24759000Y-6260000D02*
X22739000Y-6260000D01*
X24759000Y-10170000D02*
X24759000Y-6260000D01*
%TO.C,J1*%
X36897000Y-2928000D02*
X38227000Y-2928000D01*
X36897000Y-4258000D02*
X36897000Y-2928000D01*
X36897000Y-5528000D02*
X36897000Y-10668000D01*
X36897000Y-5528000D02*
X39557000Y-5528000D01*
X36897000Y-10668000D02*
X39557000Y-10668000D01*
X39557000Y-5528000D02*
X39557000Y-10668000D01*
%TD*%
M02*
