%TF.GenerationSoftware,KiCad,Pcbnew,8.0.3*%
%TF.CreationDate,2024-08-14T19:55:25+03:00*%
%TF.ProjectId,limit_switch,6c696d69-745f-4737-9769-7463682e6b69,rev?*%
%TF.SameCoordinates,PX6ce2448PY49658d0*%
%TF.FileFunction,Copper,L1,Top*%
%TF.FilePolarity,Positive*%
%FSLAX46Y46*%
G04 Gerber Fmt 4.6, Leading zero omitted, Abs format (unit mm)*
G04 Created by KiCad (PCBNEW 8.0.3) date 2024-08-14 19:55:25*
%MOMM*%
%LPD*%
G01*
G04 APERTURE LIST*
G04 Aperture macros list*
%AMRoundRect*
0 Rectangle with rounded corners*
0 $1 Rounding radius*
0 $2 $3 $4 $5 $6 $7 $8 $9 X,Y pos of 4 corners*
0 Add a 4 corners polygon primitive as box body*
4,1,4,$2,$3,$4,$5,$6,$7,$8,$9,$2,$3,0*
0 Add four circle primitives for the rounded corners*
1,1,$1+$1,$2,$3*
1,1,$1+$1,$4,$5*
1,1,$1+$1,$6,$7*
1,1,$1+$1,$8,$9*
0 Add four rect primitives between the rounded corners*
20,1,$1+$1,$2,$3,$4,$5,0*
20,1,$1+$1,$4,$5,$6,$7,0*
20,1,$1+$1,$6,$7,$8,$9,0*
20,1,$1+$1,$8,$9,$2,$3,0*%
G04 Aperture macros list end*
%TA.AperFunction,SMDPad,CuDef*%
%ADD10RoundRect,0.150000X0.150000X-0.725000X0.150000X0.725000X-0.150000X0.725000X-0.150000X-0.725000X0*%
%TD*%
%TA.AperFunction,SMDPad,CuDef*%
%ADD11RoundRect,0.250000X0.850000X0.500000X-0.850000X0.500000X-0.850000X-0.500000X0.850000X-0.500000X0*%
%TD*%
%TA.AperFunction,SMDPad,CuDef*%
%ADD12RoundRect,0.250000X-0.650000X0.412500X-0.650000X-0.412500X0.650000X-0.412500X0.650000X0.412500X0*%
%TD*%
%TA.AperFunction,SMDPad,CuDef*%
%ADD13RoundRect,0.250000X0.400000X0.625000X-0.400000X0.625000X-0.400000X-0.625000X0.400000X-0.625000X0*%
%TD*%
%TA.AperFunction,SMDPad,CuDef*%
%ADD14RoundRect,0.250000X0.650000X-0.412500X0.650000X0.412500X-0.650000X0.412500X-0.650000X-0.412500X0*%
%TD*%
%TA.AperFunction,SMDPad,CuDef*%
%ADD15RoundRect,0.250000X-0.625000X0.400000X-0.625000X-0.400000X0.625000X-0.400000X0.625000X0.400000X0*%
%TD*%
%TA.AperFunction,ComponentPad*%
%ADD16O,3.000000X2.000000*%
%TD*%
%TA.AperFunction,ComponentPad*%
%ADD17O,3.000000X2.500000*%
%TD*%
%TA.AperFunction,SMDPad,CuDef*%
%ADD18RoundRect,0.249999X1.425001X-0.450001X1.425001X0.450001X-1.425001X0.450001X-1.425001X-0.450001X0*%
%TD*%
%TA.AperFunction,SMDPad,CuDef*%
%ADD19RoundRect,0.250000X-0.500000X0.850000X-0.500000X-0.850000X0.500000X-0.850000X0.500000X0.850000X0*%
%TD*%
%TA.AperFunction,ComponentPad*%
%ADD20O,2.500000X1.800000*%
%TD*%
%TA.AperFunction,ViaPad*%
%ADD21C,2.000000*%
%TD*%
%TA.AperFunction,ViaPad*%
%ADD22C,0.200000*%
%TD*%
%TA.AperFunction,Conductor*%
%ADD23C,0.600000*%
%TD*%
%TA.AperFunction,Conductor*%
%ADD24C,1.200000*%
%TD*%
G04 APERTURE END LIST*
D10*
%TO.P,U1,1*%
%TO.N,Net-(D3-A)*%
X26887000Y-14888000D03*
%TO.P,U1,2,-*%
%TO.N,Net-(D3-K)*%
X28157000Y-14888000D03*
%TO.P,U1,3,+*%
%TO.N,Net-(U1A-+)*%
X29427000Y-14888000D03*
%TO.P,U1,4,V-*%
%TO.N,GND*%
X30697000Y-14888000D03*
%TO.P,U1,5,+*%
%TO.N,Net-(D3-K)*%
X30697000Y-9738000D03*
%TO.P,U1,6,-*%
%TO.N,Net-(U1B--)*%
X29427000Y-9738000D03*
%TO.P,U1,7*%
%TO.N,VOUT*%
X28157000Y-9738000D03*
%TO.P,U1,8,V+*%
%TO.N,VCC*%
X26887000Y-9738000D03*
%TD*%
D11*
%TO.P,D3,1,K*%
%TO.N,Net-(D3-K)*%
X29951000Y-18034000D03*
%TO.P,D3,2,A*%
%TO.N,Net-(D3-A)*%
X27051000Y-18034000D03*
%TD*%
D12*
%TO.P,C2,1*%
%TO.N,VCC*%
X24427000Y-13438000D03*
%TO.P,C2,2*%
%TO.N,GND*%
X24427000Y-16563000D03*
%TD*%
D13*
%TO.P,R7,1*%
%TO.N,Net-(U1B--)*%
X31294000Y-6858000D03*
%TO.P,R7,2*%
%TO.N,VOUT*%
X28194000Y-6858000D03*
%TD*%
%TO.P,R6,1*%
%TO.N,GND*%
X35727000Y-9538000D03*
%TO.P,R6,2*%
%TO.N,Net-(U1B--)*%
X32627000Y-9538000D03*
%TD*%
D14*
%TO.P,C1,2*%
%TO.N,GND*%
X33927000Y-14738000D03*
%TO.P,C1,1*%
%TO.N,Net-(D3-K)*%
X33927000Y-17863000D03*
%TD*%
D13*
%TO.P,R3,1*%
%TO.N,Net-(D2-K)*%
X25579000Y-4445000D03*
%TO.P,R3,2*%
%TO.N,Net-(T1-AB)*%
X22479000Y-4445000D03*
%TD*%
%TO.P,R4,1*%
%TO.N,Net-(U1A-+)*%
X30927000Y-4238000D03*
%TO.P,R4,2*%
%TO.N,Net-(D2-K)*%
X27827000Y-4238000D03*
%TD*%
D15*
%TO.P,R2,1*%
%TO.N,Net-(T1-SA)*%
X6604000Y-3250000D03*
%TO.P,R2,2*%
%TO.N,IN2*%
X6604000Y-6350000D03*
%TD*%
D16*
%TO.P,J2,1,Pin_1*%
%TO.N,IN2*%
X2413000Y-8382000D03*
%TO.P,J2,2,Pin_2*%
%TO.N,unconnected-(J2-Pin_2-Pad2)*%
X2413000Y-10922000D03*
%TO.P,J2,3,Pin_3*%
%TO.N,IN1*%
X2413000Y-13462000D03*
%TD*%
D17*
%TO.P,T1,1,AA*%
%TO.N,GND*%
X19779000Y-17272000D03*
%TO.P,T1,2,AB*%
%TO.N,Net-(T1-AB)*%
X19779000Y-4572000D03*
%TO.P,T1,3,SA*%
%TO.N,Net-(T1-SA)*%
X9779000Y-4572000D03*
%TO.P,T1,4,SB*%
%TO.N,IN1*%
X9779000Y-17272000D03*
%TD*%
D18*
%TO.P,R1,1*%
%TO.N,IN1*%
X8001000Y-14482000D03*
%TO.P,R1,2*%
%TO.N,IN2*%
X8001000Y-8382000D03*
%TD*%
D19*
%TO.P,D2,1,K*%
%TO.N,Net-(D2-K)*%
X23749000Y-7620000D03*
%TO.P,D2,2,A*%
%TO.N,GND*%
X23749000Y-10520000D03*
%TD*%
D16*
%TO.P,J1,1,Pin_1*%
%TO.N,VOUT*%
X38227000Y-4258000D03*
%TO.P,J1,2,Pin_2*%
%TO.N,VCC*%
X38227000Y-6798000D03*
%TO.P,J1,3,Pin_3*%
%TO.N,GND*%
X38227000Y-9338000D03*
%TD*%
D20*
%TO.P,R5,1,1*%
%TO.N,Net-(D3-K)*%
X38227000Y-18161000D03*
%TO.P,R5,2,2*%
%TO.N,GND*%
X38227000Y-15621000D03*
%TO.P,R5,3,3*%
X38227000Y-13081000D03*
%TD*%
D21*
%TO.N,VCC*%
X26000000Y-6800000D03*
X35800000Y-6800000D03*
D22*
%TO.N,*%
X-114173000Y76962000D03*
X-114173000Y76962000D03*
X-114173000Y76962000D03*
X-114173000Y76962000D03*
X-114173000Y76962000D03*
%TD*%
D23*
%TO.N,GND*%
X30847000Y-14738000D02*
X30697000Y-14888000D01*
%TO.N,Net-(D3-K)*%
X30697000Y-11260588D02*
X28157000Y-13800588D01*
X28157000Y-14888000D02*
X28157000Y-15711000D01*
X28157000Y-15711000D02*
X30309000Y-17863000D01*
X30697000Y-9738000D02*
X30697000Y-11260588D01*
X28157000Y-13800588D02*
X28157000Y-14888000D01*
%TO.N,Net-(D3-A)*%
X26887000Y-14888000D02*
X26887000Y-17998000D01*
X26887000Y-17998000D02*
X27127000Y-18238000D01*
%TO.N,Net-(U1A-+)*%
X31122000Y-12573000D02*
X29427000Y-14268000D01*
X29427000Y-14268000D02*
X29427000Y-14888000D01*
%TO.N,Net-(U1B--)*%
X30988000Y-6858000D02*
X31294000Y-6858000D01*
X29427000Y-9738000D02*
X29427000Y-8419000D01*
X29427000Y-8419000D02*
X30988000Y-6858000D01*
%TO.N,VOUT*%
X28127000Y-7038000D02*
X28427000Y-7038000D01*
X28194000Y-6858000D02*
X28448000Y-6858000D01*
X28127000Y-7038000D02*
X28127000Y-9708000D01*
X28127000Y-9708000D02*
X28157000Y-9738000D01*
%TO.N,VCC*%
X25781000Y-6858000D02*
X25781000Y-7620000D01*
X26887000Y-12078000D02*
X26887000Y-9738000D01*
X25781000Y-7620000D02*
X26887000Y-8726000D01*
X25527000Y-13438000D02*
X26887000Y-12078000D01*
X24427000Y-13438000D02*
X25527000Y-13438000D01*
X26887000Y-8726000D02*
X26887000Y-9738000D01*
%TO.N,Net-(D3-K)*%
X30309000Y-17863000D02*
X33927000Y-17863000D01*
%TO.N,Net-(U1A-+)*%
X32766000Y-12573000D02*
X31122000Y-12573000D01*
%TO.N,Net-(U1B--)*%
X31294000Y-6858000D02*
X32627000Y-8191000D01*
X32627000Y-8191000D02*
X32627000Y-9538000D01*
%TO.N,VOUT*%
X28448000Y-6858000D02*
X29337000Y-5969000D01*
%TO.N,Net-(U1A-+)*%
X34163000Y-11176000D02*
X32766000Y-12573000D01*
%TO.N,GND*%
X33927000Y-14738000D02*
X30847000Y-14738000D01*
X24427000Y-18712000D02*
X26035000Y-20320000D01*
X26035000Y-20320000D02*
X39497000Y-20320000D01*
%TO.N,Net-(D2-K)*%
X25579000Y-4647000D02*
X23749000Y-6477000D01*
%TO.N,Net-(U1A-+)*%
X32919588Y-4238000D02*
X34163000Y-5481412D01*
%TO.N,VOUT*%
X29337000Y-5969000D02*
X29337000Y-3302000D01*
%TO.N,Net-(D2-K)*%
X25579000Y-4445000D02*
X25579000Y-4647000D01*
X25827000Y-4238000D02*
X27827000Y-4238000D01*
%TO.N,VOUT*%
X29337000Y-3302000D02*
X30099000Y-2540000D01*
X30099000Y-2540000D02*
X33655000Y-2540000D01*
%TO.N,Net-(U1A-+)*%
X30927000Y-4238000D02*
X32919588Y-4238000D01*
D24*
%TO.N,IN2*%
X3127000Y-8382000D02*
X7874000Y-8382000D01*
D23*
%TO.N,GND*%
X20427000Y-13842000D02*
X20427000Y-17538000D01*
X21402000Y-16563000D02*
X24427000Y-16563000D01*
D24*
%TO.N,IN1*%
X8001000Y-14482000D02*
X4147000Y-14482000D01*
D23*
%TO.N,IN2*%
X7620000Y-6350000D02*
X8001000Y-6731000D01*
%TO.N,IN1*%
X8890000Y-17272000D02*
X8001000Y-16383000D01*
D24*
X4147000Y-14482000D02*
X3127000Y-13462000D01*
D23*
X9779000Y-17272000D02*
X9779000Y-16514000D01*
X9779000Y-17272000D02*
X8890000Y-17272000D01*
X8001000Y-16383000D02*
X8001000Y-14482000D01*
%TO.N,IN2*%
X8001000Y-6731000D02*
X8001000Y-8382000D01*
X6604000Y-6350000D02*
X7620000Y-6350000D01*
%TO.N,GND*%
X20427000Y-17538000D02*
X21402000Y-16563000D01*
X23749000Y-10520000D02*
X20427000Y-13842000D01*
X24427000Y-16563000D02*
X24427000Y-18712000D01*
%TO.N,Net-(T1-AB)*%
X21027000Y-4238000D02*
X20427000Y-4838000D01*
%TO.N,Net-(D2-K)*%
X23749000Y-6477000D02*
X23749000Y-7620000D01*
%TO.N,Net-(T1-SA)*%
X8457000Y-3250000D02*
X9779000Y-4572000D01*
X6604000Y-3250000D02*
X8457000Y-3250000D01*
%TO.N,Net-(T1-AB)*%
X22727000Y-4238000D02*
X21027000Y-4238000D01*
%TO.N,GND*%
X38221000Y-14738000D02*
X38227000Y-14732000D01*
D24*
X38227000Y-13081000D02*
X38227000Y-9338000D01*
D23*
X33927000Y-14738000D02*
X38221000Y-14738000D01*
D24*
X38227000Y-13081000D02*
X38227000Y-15621000D01*
D23*
X38027000Y-9538000D02*
X38227000Y-9338000D01*
X40259000Y-19558000D02*
X40259000Y-16510000D01*
%TO.N,Net-(U1A-+)*%
X34163000Y-5481412D02*
X34163000Y-11176000D01*
%TO.N,Net-(D3-K)*%
X37929000Y-17863000D02*
X38227000Y-18161000D01*
%TO.N,GND*%
X40259000Y-16510000D02*
X39370000Y-15621000D01*
X39370000Y-15621000D02*
X38227000Y-15621000D01*
%TO.N,Net-(D3-K)*%
X33927000Y-17863000D02*
X37929000Y-17863000D01*
%TO.N,GND*%
X38227000Y-14732000D02*
X38227000Y-15621000D01*
X39497000Y-20320000D02*
X40259000Y-19558000D01*
%TO.N,VCC*%
X35814000Y-6798000D02*
X38227000Y-6798000D01*
%TO.N,VOUT*%
X33655000Y-2540000D02*
X35373000Y-4258000D01*
%TO.N,GND*%
X35727000Y-9538000D02*
X38027000Y-9538000D01*
%TO.N,VOUT*%
X35373000Y-4258000D02*
X38227000Y-4258000D01*
%TD*%
M02*
