%TF.GenerationSoftware,KiCad,Pcbnew,8.0.3*%
%TF.CreationDate,2024-08-14T13:46:04+03:00*%
%TF.ProjectId,test,74657374-2e6b-4696-9361-645f70636258,rev?*%
%TF.SameCoordinates,PX2fd099cPY213c4d0*%
%TF.FileFunction,Copper,L1,Top*%
%TF.FilePolarity,Positive*%
%FSLAX46Y46*%
G04 Gerber Fmt 4.6, Leading zero omitted, Abs format (unit mm)*
G04 Created by KiCad (PCBNEW 8.0.3) date 2024-08-14 13:46:04*
%MOMM*%
%LPD*%
G01*
G04 APERTURE LIST*
%TA.AperFunction,SMDPad,CuDef*%
%ADD10R,1.500000X0.550000*%
%TD*%
%TA.AperFunction,SMDPad,CuDef*%
%ADD11R,0.550000X1.500000*%
%TD*%
G04 APERTURE END LIST*
D10*
%TO.P,U1,1,PB5*%
%TO.N,unconnected-(U1-PB5-Pad1)*%
X-5700000Y4000000D03*
%TO.P,U1,2,PB6*%
%TO.N,unconnected-(U1-PB6-Pad2)*%
X-5700000Y3200000D03*
%TO.P,U1,3,PB7*%
%TO.N,unconnected-(U1-PB7-Pad3)*%
X-5700000Y2400000D03*
%TO.P,U1,4,~{RESET}*%
%TO.N,unconnected-(U1-~{RESET}-Pad4)*%
X-5700000Y1600000D03*
%TO.P,U1,5,VCC*%
%TO.N,Net-(U1-VCC-Pad17)*%
X-5700000Y800000D03*
%TO.P,U1,6,GND*%
%TO.N,Net-(U1-GND-Pad18)*%
X-5700000Y0D03*
%TO.P,U1,7,XTAL2*%
%TO.N,unconnected-(U1-XTAL2-Pad7)*%
X-5700000Y-800000D03*
%TO.P,U1,8,XTAL1*%
%TO.N,unconnected-(U1-XTAL1-Pad8)*%
X-5700000Y-1600000D03*
%TO.P,U1,9,PD0*%
%TO.N,unconnected-(U1-PD0-Pad9)*%
X-5700000Y-2400000D03*
%TO.P,U1,10,PD1*%
%TO.N,unconnected-(U1-PD1-Pad10)*%
X-5700000Y-3200000D03*
%TO.P,U1,11,PD2*%
%TO.N,unconnected-(U1-PD2-Pad11)*%
X-5700000Y-4000000D03*
D11*
%TO.P,U1,12,PD3*%
%TO.N,unconnected-(U1-PD3-Pad12)*%
X-4000000Y-5700000D03*
%TO.P,U1,13,PD4*%
%TO.N,unconnected-(U1-PD4-Pad13)*%
X-3200000Y-5700000D03*
%TO.P,U1,14,PD5*%
%TO.N,unconnected-(U1-PD5-Pad14)*%
X-2400000Y-5700000D03*
%TO.P,U1,15,PD6*%
%TO.N,unconnected-(U1-PD6-Pad15)*%
X-1600000Y-5700000D03*
%TO.P,U1,16,PD7*%
%TO.N,unconnected-(U1-PD7-Pad16)*%
X-800000Y-5700000D03*
%TO.P,U1,17,VCC*%
%TO.N,Net-(U1-VCC-Pad17)*%
X0Y-5700000D03*
%TO.P,U1,18,GND*%
%TO.N,Net-(U1-GND-Pad18)*%
X800000Y-5700000D03*
%TO.P,U1,19,PC0*%
%TO.N,unconnected-(U1-PC0-Pad19)*%
X1600000Y-5700000D03*
%TO.P,U1,20,PC1*%
%TO.N,unconnected-(U1-PC1-Pad20)*%
X2400000Y-5700000D03*
%TO.P,U1,21,PC2*%
%TO.N,unconnected-(U1-PC2-Pad21)*%
X3200000Y-5700000D03*
%TO.P,U1,22,PC3*%
%TO.N,unconnected-(U1-PC3-Pad22)*%
X4000000Y-5700000D03*
D10*
%TO.P,U1,23,PC4*%
%TO.N,unconnected-(U1-PC4-Pad23)*%
X5700000Y-4000000D03*
%TO.P,U1,24,PC5*%
%TO.N,unconnected-(U1-PC5-Pad24)*%
X5700000Y-3200000D03*
%TO.P,U1,25,PC6*%
%TO.N,unconnected-(U1-PC6-Pad25)*%
X5700000Y-2400000D03*
%TO.P,U1,26,PC7*%
%TO.N,unconnected-(U1-PC7-Pad26)*%
X5700000Y-1600000D03*
%TO.P,U1,27,AVCC*%
%TO.N,unconnected-(U1-AVCC-Pad27)*%
X5700000Y-800000D03*
%TO.P,U1,28,GND*%
%TO.N,Net-(U1-GND-Pad18)*%
X5700000Y0D03*
%TO.P,U1,29,AREF*%
%TO.N,unconnected-(U1-AREF-Pad29)*%
X5700000Y800000D03*
%TO.P,U1,30,PA7*%
%TO.N,unconnected-(U1-PA7-Pad30)*%
X5700000Y1600000D03*
%TO.P,U1,31,PA6*%
%TO.N,unconnected-(U1-PA6-Pad31)*%
X5700000Y2400000D03*
%TO.P,U1,32,PA5*%
%TO.N,unconnected-(U1-PA5-Pad32)*%
X5700000Y3200000D03*
%TO.P,U1,33,PA4*%
%TO.N,unconnected-(U1-PA4-Pad33)*%
X5700000Y4000000D03*
D11*
%TO.P,U1,34,PA3*%
%TO.N,unconnected-(U1-PA3-Pad34)*%
X4000000Y5700000D03*
%TO.P,U1,35,PA2*%
%TO.N,unconnected-(U1-PA2-Pad35)*%
X3200000Y5700000D03*
%TO.P,U1,36,PA1*%
%TO.N,unconnected-(U1-PA1-Pad36)*%
X2400000Y5700000D03*
%TO.P,U1,37,PA0*%
%TO.N,unconnected-(U1-PA0-Pad37)*%
X1600000Y5700000D03*
%TO.P,U1,38,VCC*%
%TO.N,Net-(U1-VCC-Pad17)*%
X800000Y5700000D03*
%TO.P,U1,39,GND*%
%TO.N,Net-(U1-GND-Pad18)*%
X0Y5700000D03*
%TO.P,U1,40,PB0*%
%TO.N,unconnected-(U1-PB0-Pad40)*%
X-800000Y5700000D03*
%TO.P,U1,41,PB1*%
%TO.N,unconnected-(U1-PB1-Pad41)*%
X-1600000Y5700000D03*
%TO.P,U1,42,PB2*%
%TO.N,unconnected-(U1-PB2-Pad42)*%
X-2400000Y5700000D03*
%TO.P,U1,43,PB3*%
%TO.N,unconnected-(U1-PB3-Pad43)*%
X-3200000Y5700000D03*
%TO.P,U1,44,PB4*%
%TO.N,unconnected-(U1-PB4-Pad44)*%
X-4000000Y5700000D03*
%TD*%
M02*
