%TF.GenerationSoftware,KiCad,Pcbnew,8.0.3*%
%TF.CreationDate,2024-08-14T13:46:04+03:00*%
%TF.ProjectId,test,74657374-2e6b-4696-9361-645f70636258,rev?*%
%TF.SameCoordinates,PX2fd099cPY213c4d0*%
%TF.FileFunction,Legend,Top*%
%TF.FilePolarity,Positive*%
%FSLAX46Y46*%
G04 Gerber Fmt 4.6, Leading zero omitted, Abs format (unit mm)*
G04 Created by KiCad (PCBNEW 8.0.3) date 2024-08-14 13:46:04*
%MOMM*%
%LPD*%
G01*
G04 APERTURE LIST*
%ADD10C,0.150000*%
%ADD11C,0.120000*%
G04 APERTURE END LIST*
D10*
X-761905Y7995181D02*
X-761905Y7185658D01*
X-761905Y7185658D02*
X-714286Y7090420D01*
X-714286Y7090420D02*
X-666667Y7042800D01*
X-666667Y7042800D02*
X-571429Y6995181D01*
X-571429Y6995181D02*
X-380953Y6995181D01*
X-380953Y6995181D02*
X-285715Y7042800D01*
X-285715Y7042800D02*
X-238096Y7090420D01*
X-238096Y7090420D02*
X-190477Y7185658D01*
X-190477Y7185658D02*
X-190477Y7995181D01*
X809523Y6995181D02*
X238095Y6995181D01*
X523809Y6995181D02*
X523809Y7995181D01*
X523809Y7995181D02*
X428571Y7852324D01*
X428571Y7852324D02*
X333333Y7757086D01*
X333333Y7757086D02*
X238095Y7709467D01*
%TO.C,U1*%
X-5175000Y5175000D02*
X-5175000Y4560000D01*
X-5175000Y5175000D02*
X-4500000Y5175000D01*
X-5175000Y-5175000D02*
X-5175000Y-4500000D01*
X-5175000Y-5175000D02*
X-4500000Y-5175000D01*
X5175000Y5175000D02*
X4500000Y5175000D01*
X5175000Y5175000D02*
X5175000Y4500000D01*
X5175000Y-5175000D02*
X4500000Y-5175000D01*
X5175000Y-5175000D02*
X5175000Y-4500000D01*
D11*
X-5860000Y4540000D02*
X-6200000Y5010000D01*
X-5520000Y5010000D01*
X-5860000Y4540000D01*
G36*
X-5860000Y4540000D02*
G01*
X-6200000Y5010000D01*
X-5520000Y5010000D01*
X-5860000Y4540000D01*
G37*
%TD*%
M02*
